<?xml version="1.0" standalone="no"?>
<!DOCTYPE svg PUBLIC "-//W3C//DTD SVG 20010904//EN"
 "http://www.w3.org/TR/2001/REC-SVG-20010904/DTD/svg10.dtd">
<svg version="1.0" xmlns="http://www.w3.org/2000/svg"
 width="420.000000pt" height="262.000000pt" viewBox="0 0 420.000000 262.000000"
 preserveAspectRatio="xMidYMid meet">

<g transform="translate(0.000000,262.000000) scale(0.100000,-0.100000)"
fill="#000000" stroke="none">
<path d="M1200 1869 c-90 -41 -120 -92 -120 -204 l0 -75 94 0 c104 0 106 -1
106 -68 l0 -37 31 53 c28 47 34 52 65 52 33 0 34 -1 34 -40 0 -87 -51 -150
-123 -150 -32 0 -46 7 -78 39 -22 21 -39 48 -39 60 0 18 -6 21 -46 21 l-47 0
6 -42 c7 -55 52 -116 107 -146 38 -20 56 -23 112 -20 123 7 187 77 196 214 l5
74 -102 0 -101 0 0 52 0 53 -32 -53 c-29 -46 -37 -52 -65 -52 l-33 0 0 59 c0
44 5 65 21 85 25 31 69 56 101 56 39 0 89 -38 106 -80 16 -38 19 -40 61 -40
l43 0 -7 37 c-10 53 -40 108 -72 131 -67 46 -151 54 -223 21z"/>
<path d="M1668 1783 c-40 -10 -30 -59 15 -71 17 -4 32 -13 35 -20 6 -18 -28
-27 -50 -13 -25 15 -35 7 -18 -14 17 -21 69 -16 84 8 14 22 -3 51 -32 55 -30
5 -49 30 -28 38 9 3 23 1 31 -6 17 -14 37 -10 27 6 -9 14 -42 23 -64 17z"/>
<path d="M2380 1777 c-32 -16 -40 -79 -14 -108 32 -36 104 -18 104 26 0 21 -5
25 -30 25 -16 0 -30 -4 -30 -10 0 -5 10 -10 21 -10 18 0 19 -2 9 -15 -27 -33
-70 -10 -70 37 0 35 31 54 61 38 22 -12 39 -6 23 9 -18 17 -49 20 -74 8z"/>
<path d="M2923 1780 c-36 -14 -29 -48 11 -65 19 -8 37 -19 41 -25 10 -16 -26
-24 -47 -11 -25 15 -35 7 -18 -14 16 -20 54 -19 74 1 26 25 18 45 -24 61 -22
9 -40 20 -40 25 0 15 30 21 45 8 9 -7 19 -10 23 -6 4 4 -2 14 -12 22 -22 16
-23 16 -53 4z"/>
<path d="M1770 1715 c0 -37 4 -65 10 -65 6 0 10 14 10 30 0 27 3 30 30 30 27
0 30 -3 30 -30 0 -16 5 -30 10 -30 6 0 10 28 10 65 0 37 -4 65 -10 65 -5 0
-10 -11 -10 -25 0 -21 -5 -25 -30 -25 -25 0 -30 4 -30 25 0 14 -4 25 -10 25
-6 0 -10 -28 -10 -65z"/>
<path d="M1910 1716 c0 -37 4 -66 10 -66 6 0 10 14 10 30 0 19 5 30 14 30 8 0
23 -13 33 -30 9 -16 23 -30 31 -30 14 0 9 13 -15 42 -13 14 -12 17 2 25 10 6
15 19 13 34 -3 21 -9 24 -50 27 l-48 3 0 -65z m64 48 c28 -11 18 -34 -14 -34
-18 0 -30 5 -30 13 0 25 15 32 44 21z"/>
<path d="M2040 1715 l0 -65 50 0 c28 0 50 5 50 10 0 6 -16 10 -35 10 -28 0
-35 4 -35 20 0 16 7 20 30 20 17 0 30 5 30 10 0 6 -13 10 -30 10 -23 0 -30 5
-30 19 0 15 8 21 38 24 30 3 28 4 -15 5 l-53 2 0 -65z"/>
<path d="M2170 1715 l0 -65 50 0 c28 0 50 5 50 10 0 6 -18 10 -40 10 -33 0
-40 3 -40 20 0 16 7 20 35 20 19 0 35 5 35 10 0 6 -16 10 -36 10 -28 0 -35 3
-32 18 2 11 16 19 43 23 39 6 39 6 -12 8 l-53 1 0 -65z"/>
<path d="M2510 1720 c-21 -57 -20 -96 1 -57 13 22 58 22 75 0 24 -34 25 -5 1
53 -31 79 -48 80 -77 4z m60 -12 c0 -4 -9 -8 -20 -8 -21 0 -24 8 -13 36 6 16
7 16 20 -2 7 -10 13 -21 13 -26z"/>
<path d="M2630 1715 c0 -37 4 -65 10 -65 6 0 10 18 10 40 0 22 3 40 8 40 4 0
18 -18 32 -40 37 -59 50 -52 50 25 0 37 -4 65 -10 65 -5 0 -10 -18 -10 -40 0
-22 -3 -40 -7 -40 -5 0 -18 18 -31 40 -35 61 -52 53 -52 -25z"/>
<path d="M2770 1715 l0 -65 50 0 c28 0 50 5 50 10 0 6 -16 10 -35 10 -28 0
-35 4 -35 20 0 16 7 20 30 20 17 0 30 5 30 10 0 6 -13 10 -30 10 -23 0 -30 5
-30 19 0 15 8 21 38 24 30 3 28 4 -15 5 l-53 2 0 -65z"/>
<path d="M3030 1715 c0 -37 4 -65 10 -65 6 0 10 14 10 30 0 27 3 30 30 30 27
0 30 -3 30 -30 0 -16 5 -30 10 -30 6 0 10 28 10 65 0 37 -4 65 -10 65 -5 0
-10 -11 -10 -25 0 -21 -5 -25 -30 -25 -25 0 -30 4 -30 25 0 14 -4 25 -10 25
-6 0 -10 -28 -10 -65z"/>
<path d="M2333 1539 c-25 -9 -43 -38 -43 -68 0 -28 35 -61 64 -61 27 0 51 24
41 40 -5 8 -11 6 -19 -5 -29 -40 -76 10 -52 56 12 24 26 27 60 14 13 -6 17 -4
14 5 -6 19 -39 29 -65 19z"/>
<path d="M2768 1536 c-17 -8 -24 -21 -26 -50 -6 -66 52 -101 93 -56 20 22 6
27 -24 8 -26 -16 -51 5 -51 42 0 37 25 58 51 42 27 -17 45 -16 30 2 -17 20
-46 25 -73 12z"/>
<path d="M1930 1475 l0 -65 45 0 c25 0 45 5 45 10 0 6 -16 10 -35 10 -28 0
-35 4 -35 20 0 16 7 20 35 20 19 0 35 5 35 10 0 6 -16 10 -36 10 -49 0 -44 32
6 41 33 6 32 6 -12 8 l-48 1 0 -65z"/>
<path d="M2050 1475 l0 -65 45 0 c25 0 45 5 45 10 0 6 -13 10 -30 10 -30 0
-30 1 -30 55 0 42 -3 55 -15 55 -12 0 -15 -14 -15 -65z"/>
<path d="M2170 1475 l0 -65 50 0 c28 0 50 5 50 10 0 6 -18 10 -40 10 -33 0
-40 3 -40 20 0 16 7 20 35 20 19 0 35 5 35 10 0 6 -16 10 -36 10 -28 0 -35 3
-32 18 2 11 16 19 43 23 39 6 39 6 -12 8 l-53 1 0 -65z"/>
<path d="M2438 1533 c20 -4 22 -10 22 -64 0 -46 3 -59 15 -59 12 0 15 13 15
59 0 54 2 60 23 64 12 2 -5 4 -38 4 -33 0 -50 -2 -37 -4z"/>
<path d="M2550 1475 c0 -37 4 -65 10 -65 6 0 10 14 10 30 0 39 18 38 52 -2 30
-38 48 -33 23 6 -16 23 -16 27 -1 41 31 32 9 55 -51 55 l-43 0 0 -65z m64 49
c28 -11 18 -34 -14 -34 -18 0 -30 5 -30 13 0 25 15 32 44 21z"/>
<path d="M2690 1475 c0 -37 4 -65 10 -65 6 0 10 28 10 65 0 37 -4 65 -10 65
-6 0 -10 -28 -10 -65z"/>
<path d="M0 775 l0 -165 2100 0 2100 0 0 165 0 165 -2100 0 -2100 0 0 -165z
m1591 52 c-1 -4 -1 -29 -1 -57 0 -27 -4 -50 -10 -50 -6 0 -10 27 -10 61 0 39
4 59 11 57 6 -2 10 -7 10 -11z m-466 -48 c17 -51 14 -72 -7 -51 -15 15 -45 15
-50 1 -2 -7 -9 -10 -15 -8 -15 6 24 109 42 109 7 0 21 -23 30 -51z m161 37
c16 -17 19 -36 4 -36 -5 0 -10 -9 -10 -20 0 -11 5 -20 10 -20 6 0 10 -5 10
-11 0 -6 -8 -9 -17 -7 -19 3 -36 61 -27 91 6 21 11 21 30 3z m54 -2 c0 -8 4
-13 9 -10 5 4 16 3 25 0 18 -7 23 -84 6 -84 -5 0 -10 14 -10 30 0 20 -5 30
-15 30 -10 0 -15 -10 -15 -30 0 -20 -5 -30 -15 -30 -12 0 -15 13 -15 55 0 42
3 55 15 55 8 0 15 -7 15 -16z m530 -39 l0 -55 -33 0 c-36 0 -57 15 -57 41 0
23 29 51 46 45 8 -3 14 1 14 9 0 8 7 15 15 15 12 0 15 -13 15 -55z m131 45
c32 -17 22 -32 -16 -24 -27 5 -36 3 -41 -11 -4 -10 0 -23 10 -33 13 -13 20
-14 35 -5 23 14 35 5 20 -14 -14 -16 -61 -17 -77 -1 -17 17 -15 58 5 80 18 20
36 23 64 8z m59 -6 c0 -11 5 -14 16 -10 25 10 44 -12 44 -50 0 -41 -17 -46
-22 -6 -2 16 -9 27 -18 27 -9 0 -16 -11 -18 -27 -6 -50 -22 -29 -22 27 0 30 5
55 10 55 6 0 10 -7 10 -16z m490 -39 c0 -30 -4 -55 -10 -55 -5 0 -10 25 -10
55 0 30 5 55 10 55 6 0 10 -25 10 -55z m124 39 c20 -20 5 -54 -24 -54 -13 0
-20 -7 -20 -20 0 -11 -7 -20 -15 -20 -11 0 -15 12 -15 48 0 27 3 52 7 55 12
13 51 7 67 -9z m223 -35 c-9 -15 -9 -24 1 -40 12 -19 11 -20 -10 -17 -18 2
-24 10 -26 36 -3 28 -6 31 -23 22 -11 -6 -19 -21 -19 -35 0 -14 -4 -25 -10
-25 -5 0 -10 20 -10 45 0 44 1 44 29 39 21 -4 30 -2 35 11 6 17 7 17 26 0 15
-14 17 -20 7 -36z m-1717 -10 c0 -41 28 -39 32 4 4 47 22 39 26 -11 l3 -43
-38 3 c-30 2 -39 8 -47 29 -10 30 -2 64 14 54 5 -3 10 -19 10 -36z m300 21
c24 -24 24 -30 7 -54 -9 -12 -23 -17 -42 -14 -25 2 -31 8 -33 33 -3 19 2 33
14 42 24 17 30 17 54 -7z m80 3 c3 -2 -3 -9 -13 -14 -9 -6 -17 -21 -17 -34 0
-14 -4 -25 -10 -25 -5 0 -10 21 -10 46 0 42 1 45 23 38 12 -3 24 -9 27 -11z
m98 8 c12 -6 18 -21 17 -43 0 -30 -3 -33 -29 -33 -16 0 -31 6 -34 14 -3 9 2
11 19 7 l24 -6 -22 11 c-26 13 -29 29 -11 47 14 14 15 14 36 3z m96 -4 c12 -9
17 -23 14 -42 -3 -27 -7 -30 -38 -30 -31 0 -35 3 -38 30 -3 26 17 55 38 55 3
0 14 -6 24 -13z m464 -36 c3 -41 3 -41 -30 -41 -37 0 -58 15 -58 41 0 27 27
48 58 45 24 -3 27 -8 30 -45z m92 34 c13 -8 13 -75 1 -75 -5 0 -11 12 -13 28
-2 16 -9 27 -18 27 -9 0 -16 -11 -18 -27 -5 -45 -22 -32 -22 17 0 43 1 44 30
40 16 -2 34 -6 40 -10z m100 0 c13 -8 13 -75 1 -75 -5 0 -11 12 -13 28 -2 16
-9 27 -18 27 -9 0 -16 -11 -18 -27 -5 -45 -22 -32 -22 17 0 43 1 44 30 40 16
-2 34 -6 40 -10z m90 -5 c24 -24 14 -63 -19 -68 -45 -7 -67 40 -35 72 20 21
30 20 54 -4z m280 -27 c0 -43 0 -43 -35 -43 -28 0 -38 5 -47 25 -15 33 10 62
52 62 29 0 30 -2 30 -44z m210 32 c13 -8 13 -75 1 -75 -5 0 -11 12 -13 28 -2
16 -9 27 -18 27 -9 0 -16 -11 -18 -27 -5 -45 -22 -32 -22 17 0 43 1 44 30 40
16 -2 34 -6 40 -10z m94 -1 c19 -18 20 -28 6 -55 -16 -29 -58 -25 -72 7 -11
23 -10 29 11 45 28 23 35 23 55 3z m76 -1 c3 -2 -3 -9 -13 -14 -9 -6 -17 -21
-17 -34 0 -14 -4 -25 -10 -25 -5 0 -10 21 -10 46 0 42 1 45 23 38 12 -3 24 -9
27 -11z"/>
<path d="M1086 775 c-3 -8 -1 -15 4 -15 6 0 10 7 10 15 0 8 -2 15 -4 15 -2 0
-6 -7 -10 -15z"/>
<path d="M1810 760 c0 -11 7 -20 15 -20 8 0 15 9 15 20 0 11 -7 20 -15 20 -8
0 -15 -9 -15 -20z"/>
<path d="M2630 796 c0 -9 7 -16 16 -16 17 0 14 22 -4 28 -7 2 -12 -3 -12 -12z"/>
<path d="M1434 769 c-3 -6 -2 -15 4 -21 13 -13 32 -2 32 18 0 16 -26 19 -36 3z"/>
<path d="M1640 780 c0 -5 5 -10 11 -10 5 0 7 5 4 10 -3 6 -8 10 -11 10 -2 0
-4 -4 -4 -10z"/>
<path d="M1718 773 c6 -2 18 -2 25 0 6 3 1 5 -13 5 -14 0 -19 -2 -12 -5z"/>
<path d="M2160 760 c0 -11 7 -20 15 -20 8 0 15 9 15 20 0 11 -7 20 -15 20 -8
0 -15 -9 -15 -20z"/>
<path d="M2468 773 c7 -3 16 -2 19 1 4 3 -2 6 -13 5 -11 0 -14 -3 -6 -6z"/>
<path d="M2468 743 c7 -3 16 -2 19 1 4 3 -2 6 -13 5 -11 0 -14 -3 -6 -6z"/>
<path d="M2720 760 c0 -15 5 -20 18 -18 9 2 17 10 17 18 0 8 -8 16 -17 18 -13
2 -18 -3 -18 -18z"/>
<path d="M3048 773 c7 -3 16 -2 19 1 4 3 -2 6 -13 5 -11 0 -14 -3 -6 -6z"/>
<path d="M3048 743 c7 -3 16 -2 19 1 4 3 -2 6 -13 5 -11 0 -14 -3 -6 -6z"/>
<path d="M1005 490 c3 -5 8 -10 11 -10 2 0 4 5 4 10 0 6 -5 10 -11 10 -5 0 -7
-4 -4 -10z"/>
<path d="M1170 450 c0 -27 5 -50 10 -50 6 0 10 14 10 30 0 20 5 30 15 30 10 0
15 -10 15 -30 0 -16 5 -30 11 -30 6 0 9 14 7 33 -2 24 -8 33 -25 35 -13 2 -23
10 -23 18 0 8 -4 14 -10 14 -5 0 -10 -22 -10 -50z"/>
<path d="M1965 490 c3 -5 8 -10 11 -10 2 0 4 5 4 10 0 6 -5 10 -11 10 -5 0 -7
-4 -4 -10z"/>
<path d="M2090 450 c0 -27 5 -50 10 -50 6 0 10 14 10 30 0 20 5 30 15 30 10 0
15 -10 15 -30 0 -16 5 -30 11 -30 6 0 9 14 7 33 -2 24 -8 33 -25 35 -13 2 -23
10 -23 18 0 8 -4 14 -10 14 -5 0 -10 -22 -10 -50z"/>
<path d="M2435 490 c3 -5 8 -10 11 -10 2 0 4 5 4 10 0 6 -5 10 -11 10 -5 0 -7
-4 -4 -10z"/>
<path d="M2870 485 c0 -9 -9 -15 -24 -15 -16 0 -27 -7 -31 -20 -9 -29 10 -49
46 -48 28 1 29 3 29 50 0 26 -4 48 -10 48 -5 0 -10 -7 -10 -15z m-2 -48 c2
-12 -3 -17 -17 -17 -12 0 -21 6 -21 13 0 31 32 34 38 4z"/>
<path d="M3130 450 c0 -49 1 -50 30 -50 32 0 50 22 43 51 -3 12 -14 19 -29 19
-15 0 -24 6 -24 15 0 8 -4 15 -10 15 -5 0 -10 -22 -10 -50z m55 -11 c0 -7 -8
-15 -17 -17 -18 -3 -25 18 -11 32 10 10 28 1 28 -15z"/>
<path d="M3220 450 c0 -27 5 -50 10 -50 6 0 10 23 10 50 0 28 -4 50 -10 50 -5
0 -10 -22 -10 -50z"/>
<path d="M817 483 c-15 -14 -6 -34 19 -43 14 -6 22 -14 19 -20 -4 -7 -13 -6
-27 1 -16 9 -19 8 -16 -3 7 -20 47 -22 55 -2 4 12 -1 22 -15 32 -28 18 -29 35
-2 27 11 -4 20 -2 20 4 0 12 -43 15 -53 4z"/>
<path d="M1038 478 c-9 -27 7 -73 27 -76 16 -3 18 -1 8 9 -16 16 -17 49 -2 49
6 0 4 7 -5 15 -18 18 -23 19 -28 3z"/>
<path d="M1640 445 c0 -42 2 -45 28 -45 23 1 24 2 10 11 -12 6 -18 22 -18 44
0 19 -4 35 -10 35 -5 0 -10 -20 -10 -45z"/>
<path d="M1700 445 c0 -44 1 -45 33 -44 29 0 30 1 10 9 -27 11 -30 30 -5 30
16 1 16 1 0 11 -24 14 -22 27 5 32 16 3 13 5 -10 6 -33 1 -33 0 -33 -44z"/>
<path d="M1770 445 c0 -43 1 -45 28 -45 33 0 52 16 52 45 0 29 -19 45 -52 45
-27 0 -28 -2 -28 -45z m59 21 c15 -18 3 -46 -20 -46 -14 0 -19 7 -19 30 0 32
19 40 39 16z"/>
<path d="M1900 445 c0 -43 1 -45 28 -44 16 1 20 3 10 6 -13 3 -18 15 -18 44 0
21 -4 39 -10 39 -5 0 -10 -20 -10 -45z"/>
<path d="M2178 478 c-9 -27 7 -73 27 -76 16 -3 18 -1 8 9 -16 16 -17 49 -2 49
6 0 4 7 -5 15 -18 18 -23 19 -28 3z"/>
<path d="M2303 445 c12 -53 30 -58 44 -12 l10 32 7 -32 c11 -47 31 -41 43 12
12 51 -2 62 -16 13 l-9 -33 -7 33 c-4 17 -13 32 -20 32 -7 0 -16 -15 -20 -32
l-7 -33 -9 33 c-14 49 -28 38 -16 -13z"/>
<path d="M2940 470 c-25 -46 31 -93 68 -56 16 15 14 16 -15 10 -25 -5 -34 -3
-39 11 -4 9 0 23 8 32 13 12 20 13 38 3 18 -10 21 -9 18 2 -3 7 -19 14 -36 16
-23 2 -33 -2 -42 -18z"/>
<path d="M893 435 c12 -40 24 -45 36 -13 l8 23 7 -23 c10 -31 22 -28 35 9 13
39 13 39 2 39 -5 0 -12 -10 -14 -22 l-4 -23 -8 23 c-9 28 -23 28 -34 0 l-8
-23 -7 23 c-4 12 -11 22 -16 22 -4 0 -3 -16 3 -35z"/>
<path d="M1000 435 c0 -19 5 -35 10 -35 6 0 10 16 10 35 0 19 -4 35 -10 35 -5
0 -10 -16 -10 -35z"/>
<path d="M1094 456 c-15 -39 23 -74 50 -45 8 9 7 11 -6 6 -19 -7 -43 17 -33
33 4 6 15 8 26 5 11 -4 19 -2 19 4 0 16 -50 13 -56 -3z"/>
<path d="M1264 456 c-10 -26 1 -51 24 -54 12 -2 22 -8 22 -14 0 -6 -11 -8 -27
-4 -26 6 -27 5 -9 -8 32 -25 56 -4 56 49 0 43 -1 45 -30 45 -17 0 -33 -6 -36
-14z m44 -19 c2 -10 -3 -17 -12 -17 -18 0 -29 16 -21 31 9 14 29 6 33 -14z"/>
<path d="M1354 456 c-15 -39 23 -74 50 -45 8 9 7 11 -5 6 -9 -3 -22 -1 -30 4
-10 6 -4 9 20 9 26 0 32 3 27 16 -3 9 -6 18 -6 20 0 11 -51 2 -56 -10z m41 -6
c3 -5 -1 -10 -9 -10 -9 0 -16 5 -16 10 0 6 4 10 9 10 6 0 13 -4 16 -10z"/>
<path d="M1435 459 c-4 -5 -4 -21 -1 -35 5 -20 12 -24 36 -22 27 2 30 6 30 35
0 30 -3 33 -29 33 -17 0 -33 -5 -36 -11z m50 -20 c0 -7 -8 -15 -17 -17 -18 -3
-25 18 -11 32 10 10 28 1 28 -15z"/>
<path d="M1520 435 c0 -19 5 -35 10 -35 6 0 10 10 10 23 0 13 5 28 12 35 9 9
7 12 -10 12 -18 0 -22 -6 -22 -35z"/>
<path d="M1960 435 c0 -19 5 -35 10 -35 6 0 10 16 10 35 0 19 -4 35 -10 35 -5
0 -10 -16 -10 -35z"/>
<path d="M2004 456 c-10 -26 1 -51 24 -54 12 -2 22 -8 22 -14 0 -6 -11 -8 -27
-4 -26 6 -27 5 -9 -8 32 -25 56 -4 56 49 0 43 -1 45 -30 45 -17 0 -33 -6 -36
-14z m44 -19 c2 -10 -3 -17 -12 -17 -18 0 -29 16 -21 31 9 14 29 6 33 -14z"/>
<path d="M2430 435 c0 -19 5 -35 10 -35 6 0 10 16 10 35 0 19 -4 35 -10 35 -5
0 -10 -16 -10 -35z"/>
<path d="M2470 435 c0 -19 5 -35 10 -35 6 0 10 10 10 23 0 13 5 28 12 35 9 9
7 12 -10 12 -18 0 -22 -6 -22 -35z"/>
<path d="M2524 456 c-13 -35 26 -71 49 -46 10 10 8 12 -5 7 -10 -3 -20 -2 -23
3 -4 6 6 10 20 10 20 0 26 4 23 18 -4 23 -56 29 -64 8z m46 -6 c0 -5 -7 -10
-15 -10 -8 0 -15 5 -15 10 0 6 7 10 15 10 8 0 15 -4 15 -10z"/>
<path d="M2635 450 c-9 -29 10 -49 46 -48 26 1 29 4 29 35 0 31 -2 33 -34 33
-26 0 -36 -5 -41 -20z m53 -13 c2 -12 -3 -17 -17 -17 -12 0 -21 6 -21 13 0 31
32 34 38 4z"/>
<path d="M2731 433 c1 -37 2 -37 8 -8 8 38 35 40 39 3 4 -31 22 -38 22 -9 0
37 -12 51 -41 51 -27 0 -29 -3 -28 -37z"/>
<path d="M3044 456 c-12 -31 1 -51 34 -54 31 -3 32 -2 32 32 0 33 -2 36 -30
36 -17 0 -33 -6 -36 -14z m44 -19 c2 -10 -3 -17 -12 -17 -18 0 -29 16 -21 31
9 14 29 6 33 -14z"/>
<path d="M3255 450 c-12 -37 41 -70 61 -38 5 8 0 9 -14 6 -12 -4 -25 -2 -28 3
-3 5 7 9 21 9 36 0 30 34 -7 38 -19 2 -28 -2 -33 -18z m45 0 c0 -5 -7 -10 -16
-10 -8 0 -12 5 -9 10 3 6 10 10 16 10 5 0 9 -4 9 -10z"/>
<path d="M3340 454 c0 -9 9 -18 20 -21 11 -3 17 -9 15 -14 -3 -4 -13 -5 -22
-2 -11 4 -14 3 -9 -5 10 -17 43 -15 50 4 4 11 -1 18 -14 21 -11 3 -20 10 -20
15 0 6 7 8 15 4 8 -3 15 -1 15 4 0 6 -11 10 -25 10 -16 0 -25 -6 -25 -16z"/>
<path d="M1576 404 c-4 -9 -4 -19 -1 -22 2 -3 7 3 11 12 4 9 4 19 1 22 -2 3
-7 -3 -11 -12z"/>
<path d="M2230 405 c0 -8 2 -15 4 -15 2 0 6 7 10 15 3 8 1 15 -4 15 -6 0 -10
-7 -10 -15z"/>
</g>
</svg>
